PathFileType	4	(X/Y/Z)	D:\TRACE\v60_Jaco2_6-2-23\JustBodyDRS_Motion1_4-v60.trc
DataRate	CameraRate	NumFrames	NumMarkers	Units	OrigDataRate	OrigDataStartFrame	OrigNumFrames
100.00	100.00	      28	9	mm	100.00	2609	      6956
Frame#	Time	front left toe			Front right toe			aft left toe			aft right toe			Arm			FL body			FR body			AL Body			AR Body			
		X1	Y1	Z1	X2	Y2	Z2	X3	Y3	Z3	X4	Y4	Z4	X5	Y5	Z5	X6	Y6	Z6	X7	Y7	Z7	X8	Y8	Z8	X9	Y9	Z9	

2609	26.080	-84.25987	20.36791	-204.05267	271.12531	77.94519	-230.35829	-43.26131	65.88702	432.56348	347.19958	11.92772	381.37616	-11.52150	1217.63757	-321.63727	3.18875	585.75238	-346.19418	162.67680	583.65210	-362.20013	94.90427	541.30383	594.80066	251.88896	534.90833	581.96155	
2610	26.090	-84.90581	20.05448	-204.02238	270.81351	67.93769	-230.74365	-40.44553	54.64523	433.41785	346.32742	12.02852	381.20969	-13.03349	1217.10364	-322.09372	1.95502	585.42291	-346.12097	161.54813	583.25708	-362.22614	94.56744	541.45398	594.77496	251.70325	535.11084	581.94629	
2611	26.100	-85.65217	19.55009	-204.12062	270.13004	58.52911	-231.57158	-39.74190	44.05450	433.20914	345.96835	12.31680	381.09280	-14.39881	1216.98877	-321.94077	1.04277	584.85376	-346.29181	159.76219	582.82336	-361.99255	94.05931	541.64301	594.73938	251.69254	534.60089	579.62854	
2612	26.110	-86.23787	19.31335	-204.20227	269.62582	49.30699	-232.55522	-40.42197	34.57792	432.61050	345.16708	12.60735	380.93237	-15.94616	1216.74585	-322.26328	-0.71449	584.92065	-346.20575	159.23817	582.95483	-362.72104	93.68512	541.66010	594.57208	251.19136	534.69379	579.29926	
2613	26.120	-87.13887	19.28045	-204.08835	269.08936	40.83388	-233.79657	-41.38013	26.00446	430.57407	344.84714	12.77686	380.85480	-17.03008	1216.64697	-322.48138	-1.76623	584.74072	-346.29822	157.91937	582.84399	-362.92282	93.06402	541.55652	594.17560	251.88242	534.53381	578.97540	
2614	26.130	-88.05637	19.18283	-204.11586	268.49112	33.38360	-235.17775	-42.67222	18.36846	427.88278	343.73346	12.79273	380.53149	-18.67125	1216.37048	-322.30048	-2.81702	584.41510	-346.35028	156.20529	582.50226	-362.86719	92.68597	541.45380	593.94116	251.22923	534.56415	578.72961	
2615	26.140	-88.72063	18.82735	-204.12407	267.92343	27.11993	-236.82558	-43.66616	13.82156	424.90121	343.00455	13.10726	380.62106	-20.96768	1216.18005	-322.96475	-4.19476	584.32678	-346.80157	155.06192	582.53943	-363.06570	91.98828	541.46722	593.48608	248.74443	534.62073	578.77423	
2616	26.150	-89.32504	18.34331	-204.48065	267.03662	21.82944	-238.85097	-44.98363	12.59485	425.94977	342.60437	13.52268	380.65704	-23.10216	1216.01147	-323.01227	-5.26223	584.04041	-347.12155	153.99368	582.76196	-364.21967	91.32738	542.03876	593.32343	248.16438	535.42035	579.49402	
2617	26.160	-90.40598	18.15059	-204.27321	266.74887	20.51484	-240.20805	-46.42691	13.71164	424.76248	341.06473	13.71269	380.31799	-25.18276	1215.88391	-323.41373	-6.88446	583.78772	-347.10626	152.69505	582.14343	-364.40857	90.94328	543.63501	593.02972	248.88477	536.72351	578.79785	
2618	26.170	-91.06466	18.13251	-204.30966	265.76404	17.66486	-240.61397	-46.59919	14.66593	425.96951	340.31027	14.51408	380.36029	-27.23417	1215.74585	-324.35739	-8.39287	583.58075	-347.43799	150.79359	582.00891	-364.22986	90.17529	544.81378	592.89441	246.53008	538.40485	578.43738	
2619	26.180	-91.83411	18.81080	-204.89400	265.39786	17.62568	-240.55887	-47.04606	14.70667	425.45898	339.47272	15.66206	379.86060	-28.87220	1216.29956	-326.36810	-9.82707	584.19098	-347.22913	149.14563	583.56201	-364.13882	89.32863	546.02899	592.94653	246.16512	539.79279	577.19501	
2620	26.190	-90.63602	22.72194	-205.11835	264.30173	17.36375	-240.75374	-47.98323	13.68317	425.43759	338.17532	18.46424	380.14612	-30.52149	1217.03857	-328.24576	-11.33671	585.55328	-347.35510	148.40195	584.96021	-364.54956	88.71156	546.90063	592.72015	245.41191	540.56567	576.66913	
2621	26.200	-87.96136	25.60253	-202.13693	262.92264	17.55993	-240.68918	-48.93431	14.06915	425.07437	335.01550	21.66521	383.30963	-32.55194	1217.58948	-329.23630	-12.66001	586.57526	-347.47491	146.78755	585.82306	-365.58841	88.33353	547.73645	592.62598	246.08397	541.00946	576.40570	
2622	26.210	-86.48714	31.80270	-199.80978	262.31088	17.43116	-241.21780	-49.77596	14.39425	424.73395	330.01251	29.11546	384.86270	-36.02710	1217.55676	-328.39615	-13.61373	586.70142	-347.71826	145.01456	585.81927	-364.72226	87.32770	548.71246	592.16058	243.92154	542.35626	577.35321	
2623	26.220	-87.42989	41.14375	-200.07335	261.77771	17.00023	-241.03188	-50.61721	14.81921	424.87399	325.68628	38.23574	385.37900	-38.24706	1217.41711	-327.38913	-15.39233	586.00641	-348.16818	144.65654	586.03821	-365.75885	86.44018	549.22125	592.15021	243.73293	543.55005	576.13013	
2624	26.230	-88.07780	50.70168	-199.84286	261.13550	16.66644	-241.25053	-51.46981	14.98207	424.89502	323.49759	49.56023	384.56174	-40.87291	1217.83105	-327.00418	-16.19326	585.38495	-348.17944	143.29619	585.57233	-365.86014	84.71722	550.09247	591.68903	241.77074	544.11237	575.59735	
2625	26.240	-90.26933	62.20555	-201.41496	260.21875	16.49235	-241.02884	-52.61035	15.14517	425.02396	324.83334	61.69264	383.72321	-43.00172	1217.96973	-327.31876	-17.05263	585.07996	-348.40591	142.47168	585.19849	-365.81000	83.75780	549.90204	591.73688	240.77982	544.34656	575.47913	
2626	26.250	-92.74267	74.06325	-201.90695	259.16251	16.12441	-241.24696	-53.74609	15.24291	424.86108	324.63568	72.14701	382.77649	-44.34259	1217.02112	-328.57330	-17.96347	584.66101	-348.35312	141.15489	584.76935	-365.53687	82.05993	549.91284	591.61755	238.66183	543.93256	576.21033	
2627	26.260	-95.62747	85.71294	-202.60753	258.57449	15.92777	-241.32942	-54.46740	15.07059	424.60928	326.85507	85.20492	382.41183	-45.08717	1215.45984	-329.84531	-18.98388	584.08881	-348.60312	140.68243	584.61884	-365.83224	80.65755	549.53534	591.74091	237.50305	543.84412	575.88202	
2628	26.270	-98.69097	97.23914	-202.79578	257.93759	15.73571	-241.31950	-55.55640	15.23421	424.37125	326.90601	96.73717	382.08121	-46.07490	1213.76294	-330.90781	-20.08082	583.31537	-348.56104	139.78456	583.94550	-365.77460	79.33536	549.64319	591.73492	236.29048	544.23248	576.02667	
2629	26.280	-101.34493	108.55172	-202.62691	256.75122	15.39505	-241.39955	-56.36293	15.28478	424.45505	324.74979	107.41499	382.02914	-47.32641	1213.00903	-331.30209	-20.90209	582.25543	-348.55551	138.46805	582.80347	-365.51706	78.01376	549.74750	591.63458	234.89192	544.59216	576.37561	
2630	26.290	-103.58038	118.38127	-202.03734	256.11267	15.25054	-241.24725	-57.45665	15.71393	424.64008	322.13626	118.01928	382.39481	-48.82045	1212.94153	-331.42548	-21.68052	581.47931	-348.48727	137.63951	582.35175	-365.75162	76.46206	549.89172	592.07263	233.29613	544.97772	576.28882	
2631	26.300	-105.40764	127.58447	-201.62820	255.19498	15.06254	-241.28998	-58.43429	15.76522	424.45413	319.25983	127.24525	382.91058	-50.87053	1212.86658	-332.14478	-22.94470	580.57855	-348.33344	136.72202	581.39948	-365.41928	75.07331	550.52301	591.91016	231.46133	545.19287	576.77356	
2632	26.310	-107.90190	135.57458	-201.03224	254.19495	14.78951	-241.25064	-59.46899	16.06615	424.36942	318.12509	135.98067	383.49426	-52.62577	1211.85254	-332.51291	-23.81565	579.87567	-348.51352	135.48190	580.65918	-364.89944	73.82192	550.99927	592.10791	230.12648	545.68518	576.84692	
2633	26.320	-110.35442	141.73401	-200.51901	253.35632	14.54846	-241.29643	-60.73120	16.60123	424.10580	315.92444	142.49402	383.75864	-53.93036	1210.54797	-333.04861	-24.99916	579.10876	-348.43549	134.90109	579.90063	-365.26746	72.56366	551.13281	592.31232	228.64986	545.89832	576.86432	
2634	26.330	-113.73927	146.88300	-200.18962	252.38599	14.40099	-241.46867	-61.92240	16.86114	424.10178	315.11826	146.98221	384.01749	-54.64621	1209.63293	-334.06311	-25.94346	578.68921	-348.28317	133.96819	579.54425	-364.99072	71.21796	551.44379	592.72815	228.41904	546.67096	576.98254	
2635	26.340	-116.90247	149.89061	-199.93022	251.74579	14.43104	-241.43013	-63.12701	17.27943	424.03934	314.41196	149.36757	384.23547	-55.21453	1208.69080	-334.93005	-26.70430	577.98865	-348.20529	132.61093	578.94159	-364.29031	69.35912	552.01190	592.65338	225.78889	546.91998	577.81445	
2636	26.350	-119.80728	149.95139	-199.21962	250.71988	14.17524	-241.54352	-62.76552	16.58891	424.41205	313.56396	148.96056	384.53101	-56.01893	1208.74756	-335.80106	-27.75811	577.72681	-347.98135	132.22003	578.75293	-364.53372	68.11005	552.36420	593.22260	224.79950	547.56378	577.37134	
